# xmcd
#
# Track frame offsets:
# 150
# 15838
# 32733
# 51422
# 70225
# 88423
# 108817
# 126550
# 142034
# 159473
# 176182
# 191644
# 210639
# 230864
#
# Disc length: 3291 seconds
#
#
# Revision: 0
# Processed by: cddbd v1.5.1PL0 Copyright (c) Steve Scherf et al.
# Submitted via: FreeRIP 2.52 
#
DISCID=d00cd90e
DTITLE=Celine Dion - One Heart
DYEAR=1900
DGENRE=
TTITLE0=I drove all Night
TTITLE1=Love is all we need
TTITLE2=Faith
TTITLE3=In his touch
TTITLE4=One Heart
TTITLE5=Stand by your side
TTITLE6=Naked
TTITLE7=Sorry for love
TTITLE8=Have you ever been in love
TTITLE9=Reveal
TTITLE10=Coulda woulda shoulda
TTITLE11=Forget me not
TTITLE12=I know what love is
TTITLE13=Je t'aime encore
EXTD=
EXTT0=
EXTT1=
EXTT2=
EXTT3=
EXTT4=
EXTT5=
EXTT6=
EXTT7=
EXTT8=
EXTT9=
EXTT10=
EXTT11=
EXTT12=
EXTT13=
PLAYORDER=
